<svg xmlns="http://www.w3.org/2000/svg" viewBox="0 0 792 498.83"><defs><style>
.cls-1{fill:#ffffff;}.cls-1,.cls-2{stroke:#ffffff;stroke-miterlimit:10;}.cls-2{fill:#9030CE;}
</style></defs><title>Artboard 1-svg</title><g id="Layer_1" data-name="Layer 1"><rect class="cls-1" x="-8.52" y="-11.57" width="810.53" height="525.07"/></g><g id="Layer_2" data-name="Layer 2"><path class="cls-2" d="M13,175.81C85.48-33.2,417.59,6,517.93,58.07c100.35,52.56,201.66,226.5-83.17,312.49,39.18-20.75,101.41-80.67,80.66-148.65C490.07,163.14,430.15,103.21,270,91.69c-68-3.46-190.14,23-246.61,73.75Z"/><path class="cls-2" d="M781.24,329.47c-72.47,209-404.58,169.83-504.93,117.75C176,394.65,74.66,220.72,359.49,134.73c-39.18,20.74-101.41,80.66-80.67,148.65,25.35,58.77,85.28,118.69,245.45,130.21,68,3.46,190.14-23,246.6-73.75Z"/><path class="cls-2" d="M349.56,193.63c1.13-3,9.4-6.72,12.63-6.71,17.44.09,76.67-1.66,102.49-1.7a7.72,7.72,0,0,1,6.67,11.62l-9.51,19a7.71,7.71,0,0,1-6.65,3.81l-74.75.45a7.7,7.7,0,0,0-7.12,4.75L359,273a7.71,7.71,0,0,0,7.12,10.67h63.12c5.61,0,12.24,4,9.93,9.07L427.83,313.2a7.71,7.71,0,0,1-7,4.53l-94.32-2a11.29,11.29,0,0,1-10.8-14.54Z"/></g></svg>